<?xml version="1.0" standalone="no"?>
<!DOCTYPE svg PUBLIC "-//W3C//DTD SVG 1.1//EN" 
"http://www.w3.org/Graphics/SVG/1.1/DTD/svg11.dtd">

<svg xmlns="http://www.w3.org/2000/svg" version="1.1" xmlns:xlink="http://www.w3.org/1999/xlink" width="200" height="200" viewBox="15 15 485 485" preserveAspectRatio="xMidYMid meet">

<path d="M 250.000000, 50.000000
         A 200.000000, 200.000000 0 1,0 450.000000, 250.000000" stroke="rgb(0,0,0)" fill="rgb(255,255,255)" stroke-width="35.000000" fill-opacity="0"/>
<path d="M 250.000000, 110.000000
         A 140.000000, 140.000000 0 1,0 390.000000, 250.000000" stroke="rgb(0,0,0)" fill="rgb(255,255,255)" stroke-width="24.500000" fill-opacity="0"/>
<path d="M 250.000000, 152.000000
         A 98.000000, 98.000000 0 1,0 348.000000, 250.000000" stroke="rgb(0,0,0)" fill="rgb(255,255,255)" stroke-width="17.150000" fill-opacity="0"/>
<path d="M 250.000000, 181.400000
         A 68.600000, 68.600000 0 1,0 318.600000, 250.000000" stroke="rgb(0,0,0)" fill="rgb(255,255,255)" stroke-width="12.005000" fill-opacity="0"/>
<path d="M 250.000000, 201.980000
         A 48.020000, 48.020000 0 1,0 298.020000, 250.000000" stroke="rgb(0,0,0)" fill="rgb(255,255,255)" stroke-width="8.403500" fill-opacity="0"/>
<path d="M 250.000000, 216.386000
         A 33.614000, 33.614000 0 1,0 283.614000, 250.000000" stroke="rgb(0,0,0)" fill="rgb(255,255,255)" stroke-width="5.882450" fill-opacity="0"/>
<path d="M 250.000000, 226.470200
         A 23.529800, 23.529800 0 1,0 273.529800, 250.000000" stroke="rgb(0,0,0)" fill="rgb(255,255,255)" stroke-width="4.117715" fill-opacity="0"/>
<path d="M 250.000000, 233.529140
         A 16.470860, 16.470860 0 1,0 266.470860, 250.000000" stroke="rgb(0,0,0)" fill="rgb(255,255,255)" stroke-width="2.882400" fill-opacity="0"/>
<path d="M 250.000000, 238.470398
         A 11.529602, 11.529602 0 1,0 261.529602, 250.000000" stroke="rgb(0,0,0)" fill="rgb(255,255,255)" stroke-width="2.017680" fill-opacity="0"/>
<path d="M 250.000000, 241.929279
         A 8.070721, 8.070721 0 1,0 258.070721, 250.000000" stroke="rgb(0,0,0)" fill="rgb(255,255,255)" stroke-width="1.412376" fill-opacity="0"/>
<path d="M 250.000000, 244.350495
         A 5.649505, 5.649505 0 1,0 255.649505, 250.000000" stroke="rgb(0,0,0)" fill="rgb(255,255,255)" stroke-width="0.988663" fill-opacity="0"/>
<path d="M 250.000000, 246.045347
         A 3.954653, 3.954653 0 1,0 253.954653, 250.000000" stroke="rgb(0,0,0)" fill="rgb(255,255,255)" stroke-width="0.692064" fill-opacity="0"/>
<path d="M 250.000000, 247.231743
         A 2.768257, 2.768257 0 1,0 252.768257, 250.000000" stroke="rgb(0,0,0)" fill="rgb(255,255,255)" stroke-width="0.484445" fill-opacity="0"/>
<path d="M 250.000000, 248.062220
         A 1.937780, 1.937780 0 1,0 251.937780, 250.000000" stroke="rgb(0,0,0)" fill="rgb(255,255,255)" stroke-width="0.339112" fill-opacity="0"/>
<path d="M 250.000000, 248.643554
         A 1.356446, 1.356446 0 1,0 251.356446, 250.000000" stroke="rgb(0,0,0)" fill="rgb(255,255,255)" stroke-width="0.237378" fill-opacity="0"/>
<path d="M 250.000000, 249.050488
         A 0.949512, 0.949512 0 1,0 250.949512, 250.000000" stroke="rgb(0,0,0)" fill="rgb(255,255,255)" stroke-width="0.166165" fill-opacity="0"/>
<path d="M 250.000000, 249.335341
         A 0.664659, 0.664659 0 1,0 250.664659, 250.000000" stroke="rgb(0,0,0)" fill="rgb(255,255,255)" stroke-width="0.116315" fill-opacity="0"/>
<path d="M 250.000000, 249.534739
         A 0.465261, 0.465261 0 1,0 250.465261, 250.000000" stroke="rgb(0,0,0)" fill="rgb(255,255,255)" stroke-width="0.081421" fill-opacity="0"/>
<path d="M 250.000000, 249.674317
         A 0.325683, 0.325683 0 1,0 250.325683, 250.000000" stroke="rgb(0,0,0)" fill="rgb(255,255,255)" stroke-width="0.056994" fill-opacity="0"/>
<path d="M 250.000000, 249.772022
         A 0.227978, 0.227978 0 1,0 250.227978, 250.000000" stroke="rgb(0,0,0)" fill="rgb(255,255,255)" stroke-width="0.039896" fill-opacity="0"/>
<path d="M 250.000000, 249.840415
         A 0.159585, 0.159585 0 1,0 250.159585, 250.000000" stroke="rgb(0,0,0)" fill="rgb(255,255,255)" stroke-width="0.027927" fill-opacity="0"/>
<path d="M 250.000000, 249.888291
         A 0.111709, 0.111709 0 1,0 250.111709, 250.000000" stroke="rgb(0,0,0)" fill="rgb(255,255,255)" stroke-width="0.019549" fill-opacity="0"/>
<path d="M 250.000000, 249.921804
         A 0.078196, 0.078196 0 1,0 250.078196, 250.000000" stroke="rgb(0,0,0)" fill="rgb(255,255,255)" stroke-width="0.013684" fill-opacity="0"/>
<path d="M 250.000000, 249.945263
         A 0.054737, 0.054737 0 1,0 250.054737, 250.000000" stroke="rgb(0,0,0)" fill="rgb(255,255,255)" stroke-width="0.009579" fill-opacity="0"/>
<path d="M 250.000000, 249.961684
         A 0.038316, 0.038316 0 1,0 250.038316, 250.000000" stroke="rgb(0,0,0)" fill="rgb(255,255,255)" stroke-width="0.006705" fill-opacity="0"/>
<path d="M 250.000000, 249.973179
         A 0.026821, 0.026821 0 1,0 250.026821, 250.000000" stroke="rgb(0,0,0)" fill="rgb(255,255,255)" stroke-width="0.004694" fill-opacity="0"/>
<path d="M 250.000000, 249.981225
         A 0.018775, 0.018775 0 1,0 250.018775, 250.000000" stroke="rgb(0,0,0)" fill="rgb(255,255,255)" stroke-width="0.003286" fill-opacity="0"/>
<path d="M 250.000000, 249.986858
         A 0.013142, 0.013142 0 1,0 250.013142, 250.000000" stroke="rgb(0,0,0)" fill="rgb(255,255,255)" stroke-width="0.002300" fill-opacity="0"/>
<path d="M 250.000000, 249.990800
         A 0.009200, 0.009200 0 1,0 250.009200, 250.000000" stroke="rgb(0,0,0)" fill="rgb(255,255,255)" stroke-width="0.001610" fill-opacity="0"/>
<path d="M 250.000000, 249.993560
         A 0.006440, 0.006440 0 1,0 250.006440, 250.000000" stroke="rgb(0,0,0)" fill="rgb(255,255,255)" stroke-width="0.001127" fill-opacity="0"/>
<path d="M 250.000000, 249.995492
         A 0.004508, 0.004508 0 1,0 250.004508, 250.000000" stroke="rgb(0,0,0)" fill="rgb(255,255,255)" stroke-width="0.000789" fill-opacity="0"/>
<path d="M 250.000000, 249.996844
         A 0.003156, 0.003156 0 1,0 250.003156, 250.000000" stroke="rgb(0,0,0)" fill="rgb(255,255,255)" stroke-width="0.000552" fill-opacity="0"/>
<path d="M 250.000000, 249.997791
         A 0.002209, 0.002209 0 1,0 250.002209, 250.000000" stroke="rgb(0,0,0)" fill="rgb(255,255,255)" stroke-width="0.000387" fill-opacity="0"/>
<path d="M 250.000000, 249.998454
         A 0.001546, 0.001546 0 1,0 250.001546, 250.000000" stroke="rgb(0,0,0)" fill="rgb(255,255,255)" stroke-width="0.000271" fill-opacity="0"/>
<path d="M 250.000000, 249.998918
         A 0.001082, 0.001082 0 1,0 250.001082, 250.000000" stroke="rgb(0,0,0)" fill="rgb(255,255,255)" stroke-width="0.000189" fill-opacity="0"/>
<path d="M 250.000000, 249.999242
         A 0.000758, 0.000758 0 1,0 250.000758, 250.000000" stroke="rgb(0,0,0)" fill="rgb(255,255,255)" stroke-width="0.000133" fill-opacity="0"/>
</svg>
