<?xml version="1.0" encoding="utf-8"?>
<!-- Generator: Adobe Illustrator 14.0.0, SVG Export Plug-In . SVG Version: 6.00 Build 43363)  -->
<!DOCTYPE svg PUBLIC "-//W3C//DTD SVG 1.1//EN" "http://www.w3.org/Graphics/SVG/1.1/DTD/svg11.dtd">
<svg version="1.1" xmlns="http://www.w3.org/2000/svg" xmlns:xlink="http://www.w3.org/1999/xlink" x="0px" y="0px"
	 width="841.89px" height="595.28px" viewBox="0 0 841.89 595.28" enable-background="new 0 0 841.89 595.28" xml:space="preserve">
<g id="Layer_1">
	<ellipse fill="#FFFFFF" stroke="#231F20" stroke-width="3" cx="719.362" cy="158.824" rx="28.768" ry="99.211"/>
	<rect x="686.317" y="57.17" fill="#FFFFFF" stroke="#FFFFFF" stroke-width="3" width="33.273" height="199.306"/>
	<ellipse fill="#FFFFFF" stroke="#231F20" stroke-width="3" cx="397.783" cy="158.718" rx="28.768" ry="99.213"/>
	<line fill="none" stroke="#231F20" stroke-width="3.0065" x1="397.414" y1="59.583" x2="721.913" y2="59.583"/>
	<line fill="none" stroke="#231F20" stroke-width="3.0106" x1="397.063" y1="258.06" x2="720.64" y2="258.06"/>
	<g id="XMLID_1_">
		<g>
			<path fill="#00ADEE" d="M307.968,224.862l0.44,0.39c-18.15,20.07-44.4,32.68-73.6,32.68c-29.21,0-55.47-12.62-73.62-32.71
				l0.41-0.36H307.968z"/>
			<path fill="#FFFFFF" d="M161.188,225.222c-15.91-17.6-25.59-40.92-25.59-66.5c0-54.8,44.42-99.22,99.21-99.22
				c54.8,0,99.21,44.42,99.21,99.22c0,25.6-9.69,48.93-25.61,66.53l-0.44-0.39h-146.37L161.188,225.222z"/>
		</g>
		<g>
			<path fill="none" stroke="#231F20" stroke-width="3" d="M161.188,225.222c-15.91-17.6-25.59-40.92-25.59-66.5
				c0-54.8,44.42-99.22,99.21-99.22c54.8,0,99.21,44.42,99.21,99.22c0,25.6-9.69,48.93-25.61,66.53
				c-18.15,20.07-44.4,32.68-73.6,32.68C205.598,257.932,179.338,245.313,161.188,225.222z"/>
			<line fill="none" stroke="#231F20" stroke-width="2.9517" x1="161.598" y1="224.862" x2="307.968" y2="224.862"/>
		</g>
	</g>
	<line fill="none" stroke="#231F20" stroke-dasharray="9.0906" x1="234.808" y1="12.175" x2="234.808" y2="295.743"/>
</g>
<g id="Layer_2">
	<g>
		<g>
			<line fill="#231F20" x1="142.746" y1="158.921" x2="229.996" y2="158.921"/>
			<path fill="#231F20" d="M236.031,158.921c-2.84,1.054-6.363,2.852-8.547,4.755l1.72-4.755l-1.72-4.755
				C229.667,156.07,233.191,157.869,236.031,158.921z"/>
			<path fill="#231F20" d="M136.711,158.921c2.84-1.054,6.363-2.852,8.547-4.755l-1.72,4.755l1.72,4.755
				C143.074,161.773,139.551,159.975,136.711,158.921z"/>
		</g>
		<g>
			<line fill="none" stroke="#231F20" x1="142.746" y1="158.921" x2="229.996" y2="158.921"/>
			<path fill="#231F20" d="M236.031,158.921c-2.84,1.054-6.363,2.852-8.547,4.755l1.72-4.755l-1.72-4.755
				C229.667,156.07,233.191,157.869,236.031,158.921z"/>
			<path fill="#231F20" d="M136.711,158.921c2.84-1.054,6.363-2.852,8.547-4.755l-1.72,4.755l1.72,4.755
				C143.074,161.773,139.551,159.975,136.711,158.921z"/>
		</g>
	</g>
	<rect x="173.801" y="136.464" fill="none" width="41.826" height="20.558"/>
	<text transform="matrix(1 0 0 1 173.8013 149.3521)" fill="#231F20" stroke="#231F20" font-family="sans-serif" font-size="18">R</text>
	<g>
		<g>
			<line fill="#231F20" x1="319.038" y1="251.646" x2="319.038" y2="231.09"/>
			<path fill="#231F20" d="M319.038,225.055c1.054,2.84,2.852,6.363,4.755,8.547l-4.755-1.72l-4.755,1.72
				C316.187,231.418,317.985,227.895,319.038,225.055z"/>
			<path fill="#231F20" d="M319.038,257.681c-1.054-2.84-2.852-6.363-4.755-8.547l4.755,1.72l4.755-1.72
				C321.89,251.317,320.091,254.841,319.038,257.681z"/>
		</g>
		<g>
			<line fill="none" stroke="#231F20" x1="319.038" y1="251.646" x2="319.038" y2="231.09"/>
			<path fill="#231F20" d="M319.038,225.055c1.054,2.84,2.852,6.363,4.755,8.547l-4.755-1.72l-4.755,1.72
				C316.187,231.418,317.985,227.895,319.038,225.055z"/>
			<path fill="#231F20" d="M319.038,257.681c-1.054-2.84-2.852-6.363-4.755-8.547l4.755,1.72l4.755-1.72
				C321.89,251.317,320.091,254.841,319.038,257.681z"/>
		</g>
	</g>
	<rect x="324.891" y="234.15" fill="none" width="41.826" height="20.558"/>
	<text transform="matrix(1 0 0 1 324.8906 247.0381)" fill="#231F20" stroke="#231F20" font-family="sans-serif" font-size="18">H</text>
	<g>
		<g>
			<line fill="#231F20" x1="403.439" y1="276.397" x2="713.397" y2="276.397"/>
			<path fill="#231F20" d="M719.433,276.397c-2.84,1.054-6.363,2.852-8.547,4.755l1.719-4.755l-1.719-4.755
				C713.069,273.545,716.593,275.344,719.433,276.397z"/>
			<path fill="#231F20" d="M397.404,276.397c2.84-1.054,6.363-2.852,8.547-4.755l-1.72,4.755l1.72,4.755
				C403.768,279.249,400.244,277.45,397.404,276.397z"/>
		</g>
		<g>
			<line fill="none" stroke="#231F20" x1="403.439" y1="276.397" x2="713.397" y2="276.397"/>
			<path fill="#231F20" d="M719.433,276.397c-2.84,1.054-6.363,2.852-8.547,4.755l1.719-4.755l-1.719-4.755
				C713.069,273.545,716.593,275.344,719.433,276.397z"/>
			<path fill="#231F20" d="M397.404,276.397c2.84-1.054,6.363-2.852,8.547-4.755l-1.72,4.755l1.72,4.755
				C403.768,279.249,400.244,277.45,397.404,276.397z"/>
		</g>
	</g>
	<rect x="560.128" y="286.968" fill="none" width="41.826" height="20.558"/>
	<text transform="matrix(1 0 0 1 560.127 299.8555)" fill="#231F20" stroke="#231F20" font-family="sans-serif" font-size="18">L</text>
</g>
<g id="Layer_3">
	<g>
		<g id="XMLID_2_">
			<g>
				<path fill="#FFFFFF" d="M431.525,345.941c25.6,0,48.93,9.69,66.529,25.61l-0.39,0.439v146.37l0.36,0.41
					c-17.59,15.91-40.91,25.59-66.5,25.59c-54.8,0-99.22-44.42-99.22-99.21C332.305,390.352,376.725,345.941,431.525,345.941z"/>
				<path fill="#00ADEE" d="M497.665,371.991l0.39-0.439c20.07,18.149,32.681,44.399,32.681,73.6c0,29.21-12.62,55.47-32.71,73.62
					l-0.36-0.41V371.991z"/>
			</g>
			<g>
				<path fill="none" stroke="#231F20" stroke-width="3" d="M498.025,518.771c-17.59,15.91-40.91,25.59-66.5,25.59
					c-54.8,0-99.22-44.42-99.22-99.21c0-54.8,44.42-99.21,99.22-99.21c25.6,0,48.93,9.69,66.529,25.61
					c20.07,18.149,32.681,44.399,32.681,73.6C530.735,474.361,518.115,500.621,498.025,518.771z"/>
				<line fill="none" stroke="#231F20" stroke-width="2.9517" x1="497.665" y1="518.361" x2="497.665" y2="371.991"/>
			</g>
		</g>
		<line fill="none" stroke="#231F20" stroke-dasharray="9.0906" x1="284.67" y1="445.151" x2="568.237" y2="445.151"/>
		<line fill="none" stroke="#231F20" stroke-dasharray="9.0906" x1="431.52" y1="307.166" x2="431.52" y2="590.733"/>
		<g>
			<g>
				<line fill="#231F20" x1="525.196" y1="525.093" x2="504.64" y2="525.093"/>
				<path fill="#231F20" d="M498.604,525.093c2.84-1.054,6.363-2.852,8.547-4.755l-1.721,4.755l1.721,4.755
					C504.968,527.944,501.444,526.146,498.604,525.093z"/>
				<path fill="#231F20" d="M531.231,525.093c-2.84,1.054-6.363,2.852-8.547,4.755l1.719-4.755l-1.719-4.755
					C524.868,522.241,528.392,524.04,531.231,525.093z"/>
			</g>
			<g>
				<line fill="none" stroke="#231F20" x1="525.196" y1="525.093" x2="504.64" y2="525.093"/>
				<path fill="#231F20" d="M498.604,525.093c2.84-1.054,6.363-2.852,8.547-4.755l-1.721,4.755l1.721,4.755
					C504.968,527.944,501.444,526.146,498.604,525.093z"/>
				<path fill="#231F20" d="M531.231,525.093c-2.84,1.054-6.363,2.852-8.547,4.755l1.719-4.755l-1.719-4.755
					C524.868,522.241,528.392,524.04,531.231,525.093z"/>
			</g>
		</g>
		<rect x="507.501" y="535.958" fill="none" width="41.826" height="20.558"/>
		<text transform="matrix(1 0 0 1 507.501 548.8457)" fill="#231F20" stroke="#231F20" font-family="sans-serif" font-size="18">H</text>
		<g>
			<g>
				<line fill="#231F20" x1="337.573" y1="435.918" x2="424.822" y2="435.918"/>
				<path fill="#231F20" d="M430.857,435.918c-2.84,1.054-6.363,2.852-8.547,4.754l1.72-4.754l-1.72-4.755
					C424.494,433.066,428.018,434.865,430.857,435.918z"/>
				<path fill="#231F20" d="M331.538,435.918c2.84-1.054,6.363-2.852,8.547-4.755l-1.72,4.755l1.72,4.754
					C337.901,438.77,334.377,436.972,331.538,435.918z"/>
			</g>
			<g>
				<line fill="none" stroke="#231F20" x1="337.573" y1="435.918" x2="424.822" y2="435.918"/>
				<path fill="#231F20" d="M430.857,435.918c-2.84,1.054-6.363,2.852-8.547,4.754l1.72-4.754l-1.72-4.755
					C424.494,433.066,428.018,434.865,430.857,435.918z"/>
				<path fill="#231F20" d="M331.538,435.918c2.84-1.054,6.363-2.852,8.547-4.755l-1.72,4.755l1.72,4.754
					C337.901,438.77,334.377,436.972,331.538,435.918z"/>
			</g>
		</g>
		<rect x="362.628" y="413.461" fill="none" width="41.826" height="20.558"/>
		<polygon fill="none" stroke="#EC1C24" stroke-width="2" points="483.38,363.006 431.541,445.093 483.38,445.093 		"/>
		<rect x="442.126" y="429.72" fill="none" width="10.926" height="14.303"/>
		<text transform="matrix(1 0 0 1 442.127 442.6074)" font-family="sans-serif" font-size="18">θ</text>
		<rect x="456.246" y="444.658" fill="none" width="10.926" height="14.303"/>
		<text transform="matrix(1 0 0 1 456.2461 457.5459)" font-family="sans-serif" font-size="18">a</text>
		<rect x="484.571" y="401.092" fill="none" width="10.926" height="14.303"/>
		<text transform="matrix(1 0 0 1 484.5723 413.9795)" font-family="sans-serifs" font-size="18">b</text>
	</g>
	<rect x="374.033" y="415.708" fill="none" width="41.826" height="20.558"/>
	<text transform="matrix(1 0 0 1 374.0327 428.5957)" fill="#231F20" stroke="#231F20" font-family="sans-serif" font-size="18">R</text>
</g>
</svg>
